<?xml version="1.0" encoding="utf-8"?>
<!-- Generator: Adobe Illustrator 18.1.1, SVG Export Plug-In . SVG Version: 6.00 Build 0)  -->
<!DOCTYPE svg PUBLIC "-//W3C//DTD SVG 1.1//EN" "http://www.w3.org/Graphics/SVG/1.1/DTD/svg11.dtd">
<svg version="1.1" id="Twitter_w_x2F__circle" xmlns="http://www.w3.org/2000/svg" xmlns:xlink="http://www.w3.org/1999/xlink"
	 x="0px" y="0px" viewBox="0 0 20 20" enable-background="new 0 0 20 20" xml:space="preserve">
<path fill="#E3EAF1" d="M10,0.4 C4.698,0.4 0.4,4.698 0.4,10 C0.4,15.302 4.698,19.6 10,19.6 C15.302,19.6 19.6,15.302 19.6,10 C19.6,4.698 15.302,0.4 10,0.4 Z M15,13.0699612 L14.9994992,13.0699612 C14.9994992,13.5837046 14.5991743,14 14.105264,14 L5.89423521,14 C5.40026929,14 5,13.5836468 5,13.0699612 L5,8.15907644 C5,8.10473931 5.00534138,8.05190672 5.01402111,8 L9.73268087,11.0601817 C9.73846736,11.0639431 9.74464332,11.0664892 9.75059673,11.0699612 C9.75682834,11.073549 9.76317122,11.077021 9.7695141,11.0803194 C9.80284206,11.0982003 9.83717152,11.1126092 9.87227993,11.1220415 C9.87589649,11.1230832 9.87951304,11.1235461 9.8831296,11.1244141 C9.92163201,11.1338464 9.96063518,11.1397489 9.99958271,11.1397489 L9.9998609,11.1397489 C10.0001391,11.1397489 10.0004173,11.1397489 10.0004173,11.1397489 C10.0393648,11.1397489 10.078368,11.13402 10.1168704,11.1244141 C10.120487,11.1234882 10.1241035,11.1230832 10.1277201,11.1220415 C10.1627728,11.1126092 10.196991,11.0982003 10.2304859,11.0803194 C10.2368288,11.077021 10.2431717,11.073549 10.2494033,11.0699612 C10.255301,11.0664892 10.2615326,11.0639431 10.2673191,11.0601817 L14.9859789,8 C14.9946586,8.05190672 15,8.10462358 15,8.15907644 L15,13.0699612 Z M10,5 L15,8 L5,8 L10,5 Z" />
</svg>
