<?xml version="1.0" encoding="utf-8"?>
<!-- Generator: Adobe Illustrator 18.1.1, SVG Export Plug-In . SVG Version: 6.00 Build 0)  -->
<!DOCTYPE svg PUBLIC "-//W3C//DTD SVG 1.1//EN" "http://www.w3.org/Graphics/SVG/1.1/DTD/svg11.dtd">
<svg version="1.1" id="Twitter_w_x2F__circle" xmlns="http://www.w3.org/2000/svg" xmlns:xlink="http://www.w3.org/1999/xlink"
	 x="0px" y="0px" viewBox="0 0 20 20" enable-background="new 0 0 20 20" xml:space="preserve">
<path fill="#E3EAF1" d="M10,0.4 C15.302,0.4 19.6,4.698 19.6,10 C19.6,15.302 15.302,19.6 10,19.6 C4.698,19.6 0.4,15.302 0.4,10 C0.4,4.698 4.698,0.4 10,0.4 Z M8.15,5 L5.02554959,5 L9.07947642,10.4203893 L5,14.8274291 L5.91819936,14.8274291 L9.48985568,10.9689126 L12.3755496,14.8274291 L15.5,14.8274291 L11.2178889,9.10220675 L15.0150864,5 L14.0968871,5 L10.8076859,8.5535073 L8.15,5 Z M7.81115959,5.67627119 L14.1495721,14.1511579 L12.7142138,14.1511579 L6.37580131,5.67627119 L7.81115959,5.67627119 Z" />
</svg>
